<svg viewBox="-0.709 -0.709 141.732 141.732" xmlns="http://www.w3.org/2000/svg"><path d="M108.319 108.319a5.398 5.398 0 0 1-7.632-.001l-.003-.003L70.159 77.79 39.63 108.318a5.4 5.4 0 0 1-7.634 0 5.403 5.403 0 0 1 0-7.633l30.528-30.528-30.54-30.541a5.398 5.398 0 0 1 7.633-7.632l30.541 30.541 30.528-30.527a5.397 5.397 0 1 1 7.633 7.633L77.791 70.157l30.527 30.528a5.397 5.397 0 0 1 .001 7.634m11.448 11.448c27.396-27.397 27.396-71.818 0-99.217-27.397-27.399-71.82-27.4-99.22-.002-27.397 27.398-27.396 71.819.001 99.22 27.399 27.398 71.82 27.397 99.219-.001"/></svg>