<svg width="283.922" height="283.922" xmlns="http://www.w3.org/2000/svg"><path d="M266.422 0h-68.588c-9.65 0-17.5 7.851-17.5 17.5 0 9.649 7.85 17.5 17.5 17.5h26.34l-92.375 92.374a17.378 17.378 0 0 0-5.127 12.375c0 4.676 1.819 9.069 5.125 12.371a17.374 17.374 0 0 0 12.375 5.13c4.674 0 9.069-1.82 12.376-5.127l92.374-92.375v26.377c0 9.649 7.851 17.5 17.5 17.5 9.649 0 17.5-7.851 17.5-17.5V17.5c0-9.65-7.851-17.5-17.5-17.5z"/><path d="M201.137 253.922H30V82.785h72.134l30-30H15c-8.284 0-15 6.716-15 15v201.137c0 8.284 6.716 15 15 15h201.137c8.284 0 15-6.716 15-15V141.941l-30 30v81.981z"/></svg>