<svg height="512" width="512" xmlns="http://www.w3.org/2000/svg"><path d="M384.594 394.583c4.985-.079 9.91-2.163 13.437-5.688l55-55c3.6-3.6 5.697-8.659 5.697-13.75 0-5.09-2.096-10.15-5.697-13.75L269.75 123.114c-3.6-3.6-8.659-5.697-13.75-5.697-5.091 0-10.15 2.096-13.75 5.697L58.969 306.395c-3.6 3.6-5.697 8.66-5.697 13.75 0 5.091 2.096 10.15 5.697 13.75l55 55c3.598 3.591 8.65 5.681 13.734 5.681s10.136-2.09 13.734-5.68L256 274.332l114.562 114.562c3.667 3.664 8.849 5.765 14.032 5.688z" fill="#4c4c4c"/></svg>