<svg height="24" viewBox="0 0 24 24" width="24" xmlns="http://www.w3.org/2000/svg"><path d="M12 0C5.4 0 0 5.4 0 12s5.4 12 12 12 12-5.4 12-12S18.6 0 12 0zm9.8 10h-4.1c-.7-1.7-2-3-3.7-3.7V2.2c3.9.8 7 3.9 7.8 7.8zm.2 2c0 .3 0 .7-.1 1h-4c.1-.3.1-.7.1-1s0-.7-.1-1h4c.1.3.1.7.1 1zm-10 4c-2.2 0-4-1.8-4-4s1.8-4 4-4 4 1.8 4 4-1.8 4-4 4zm1-13.9v4c-.3-.1-.7-.1-1-.1s-.7 0-1 .1v-4c.3-.1.7-.1 1-.1s.7 0 1 .1zm-3 .1v4.1c-1.7.7-3 2-3.7 3.7H2.2C3 6.1 6.1 3 10 2.2zM6.1 13h-4c-.1-.3-.1-.7-.1-1s0-.7.1-1h4c-.1.3-.1.7-.1 1s0 .7.1 1zm-3.9 1h4.1c.6 1.7 1.9 3 3.7 3.7v4.1C6.1 21 3 17.9 2.2 14zm8.8 7.9v-4c.3.1.7.1 1 .1s.7 0 1-.1v4c-.3 0-.7.1-1 .1s-.7 0-1-.1zm3-.1v-4.1c1.7-.6 3-1.9 3.7-3.7h4.1c-.8 3.9-3.9 7-7.8 7.8z"/></svg>