<svg xmlns="http://www.w3.org/2000/svg" viewBox="0 0 375.636 375.635"><path d="M41.013 228.825C18.396 228.825 0 210.438 0 187.818c0-22.608 18.396-41.007 41.013-41.007 22.617 0 41.013 18.398 41.013 41.007-.001 22.62-18.396 41.007-41.013 41.007zm144.5 0c-22.617 0-41.013-18.387-41.013-41.007 0-22.608 18.396-41.007 41.013-41.007 22.613 0 41.013 18.398 41.013 41.007-.001 22.62-18.4 41.007-41.013 41.007zm149.11 0c-22.613 0-41.013-18.387-41.013-41.007 0-22.608 18.399-41.007 41.013-41.007 22.614 0 41.013 18.398 41.013 41.007 0 22.62-18.399 41.007-41.013 41.007z"/></svg>