<?xml version="1.0" ?><svg id="Layer_1" style="enable-background:new 0 0 512 512;" version="1.1" viewBox="0 0 512 512" xml:space="preserve" xmlns="http://www.w3.org/2000/svg" xmlns:xlink="http://www.w3.org/1999/xlink"><style type="text/css">
	.st0{fill:#231F20;}
</style><path class="st0" d="M284.3,245.1l110.9-110.9c7.8-7.8,7.8-20.5,0-28.3s-20.5-7.8-28.3,0L256,216.8L145.1,105.9  c-7.8-7.8-20.5-7.8-28.3,0s-7.8,20.5,0,28.3l110.9,110.9L116.9,355.9c-7.8,7.8-7.8,20.5,0,28.3c3.9,3.9,9,5.9,14.1,5.9  c5.1,0,10.2-2,14.1-5.9L256,273.3l110.9,110.9c3.9,3.9,9,5.9,14.1,5.9s10.2-2,14.1-5.9c7.8-7.8,7.8-20.5,0-28.3L284.3,245.1z"/></svg>