<?xml version="1.0" ?><!DOCTYPE svg  PUBLIC '-//W3C//DTD SVG 1.1//EN'  'http://www.w3.org/Graphics/SVG/1.1/DTD/svg11.dtd'><svg enable-background="new -0.709 -0.709 141.732 141.732" height="141.732px" id="Livello_1" version="1.1" viewBox="-0.709 -0.709 141.732 141.732" width="141.732px" xml:space="preserve" xmlns="http://www.w3.org/2000/svg" xmlns:xlink="http://www.w3.org/1999/xlink"><g id="Livello_102"><path d="M108.319,108.319c-2.106,2.107-5.523,2.106-7.632-0.001l-0.003-0.003L70.159,77.79L39.63,108.318   c-2.106,2.108-5.523,2.107-7.634,0c-2.104-2.106-2.105-5.523,0-7.633l30.528-30.528l-30.54-30.541   c-2.106-2.104-2.106-5.521,0-7.631c2.105-2.107,5.522-2.107,7.633-0.001l30.541,30.541l30.528-30.527   c2.105-2.105,5.523-2.105,7.633,0c2.109,2.106,2.107,5.524,0,7.633L77.791,70.157l30.527,30.528   C110.427,102.794,110.427,106.212,108.319,108.319 M119.767,119.767c27.396-27.397,27.396-71.818,0-99.217   C92.37-6.849,47.947-6.85,20.547,20.548c-27.397,27.398-27.396,71.819,0.001,99.22C47.947,147.166,92.368,147.165,119.767,119.767"/></g><g id="Livello_1_1_"/></svg>