<?xml version="1.0" ?>
<svg viewBox="0 0 500 500" xmlns="http://www.w3.org/2000/svg">
<path d="M82.474,215.547c-8.903,8.9-13.177,21.622-15.354,34.523  L32.503,413.794c-4.906,29.077,24.257,58.33,53.698,53.787l163.897-34.167c11.996-2.174,24.987-5.902,33.894-14.802L457.609,244.8  c13.904-13.982,13.904-36.608,0-50.6L305.977,42.382c-13.992-13.902-36.615-13.902-50.516,0L82.474,215.547z M249.099,390.257  l-84.856,16.273l-70.319-70.415l16.169-84.954l126.376-126.557c6.996-7,18.267-7,25.263,0c6.999,6.992,6.999,18.348,0,25.35  L144.888,266.973c-8.717,8.723-8.717,22.898,0,31.613c8.725,8.731,22.807,8.731,31.528,0l116.925-117.02  c7.005-6.993,18.26-6.993,25.26,0c7.005,7,7.005,18.268,0,25.259L201.766,323.846c-8.723,8.721-8.723,22.899,0,31.622  c8.722,8.719,22.805,8.719,31.524,0l116.925-117.021c6.912-6.912,18.269-6.912,25.268,0c6.993,6.992,6.993,18.351,0,25.338  L249.099,390.257z" fill="#010101" fill-rule="evenodd"/>
</svg>