<?xml version="1.0"?>
<svg width="283.922" height="283.922" xmlns="http://www.w3.org/2000/svg">
<path fill="black" id="svg_1" d="m266.422,0l-68.588,0c-9.64999,0 -17.5,7.851 -17.5,17.5c0,9.649 7.85001,17.5 17.5,17.5l26.34,0l-92.375,92.374c-3.30699,3.305 -5.127,7.699 -5.127,12.37499c0,4.67601 1.819,9.069 5.125,12.371c3.306,3.30901 7.69902,5.12999 12.375,5.12999c4.674,0 9.069,-1.82001 12.37601,-5.127l92.37399,-92.37502l0,26.377c0,9.64899 7.85101,17.5 17.5,17.5c9.64902,0 17.5,-7.85101 17.5,-17.5l0,-68.625c0,-9.64903 -7.85098,-17.50003 -17.5,-17.50003l0,0.00001l0,0.00001l0,0.00001l0,0.00001l0,0.00001l0,0.00001z"/>
<path d="m201.13699,253.922l-171.13699,0l0,-171.13699l72.13362,0l29.99998,-29.99999l-117.13363,-0.00001c-8.284,0 -15,6.716 -15,15l0,201.13699c0,8.284 6.716,15 15,15l201.13698,0c8.28401,0 15,-6.716 15,-15l0.00003,-126.98106l-30,29.99979l-0.00003,81.98131l0,-0.00003l0.00003,0z" fill="black" id="svg_2"/>
</svg>