<svg height="64" viewBox="8 8 48 48" width="64" xmlns="http://www.w3.org/2000/svg"><path d="M20.952 52.828l-.141.145-.807.821c-1.896 1.896-6.636 1.896-7.584.948-.947-.948 0-1.914 0-1.914 1.896-1.878 2.844-3.682 2.844-6.144V24.882c0-9.163 7.428-16.59 16.589-16.59 9.163 0 16.59 7.428 16.59 16.59v23.225c0 1.896-.947 3.792-2.844 5.688-1.896 1.896-6.637 1.896-7.584.948s0-1.914 0-1.914c-1.767 1.505-3.142 2.766-5.517 2.766-2.646 0-4.207-1.33-3.437-2.337-.813 1.16-3.626 2.337-5.626 2.337-2.185-.001-3.615-1.106-2.483-2.767z" fill="#FFF"/><path d="M31.854 8.292c-.678 0-1.343.053-2 .132 8.218.99 14.59 7.974 14.59 16.458v23.225c0 1.896-.947 3.792-2.844 5.688-.674.674-1.707 1.104-2.801 1.342 1.696.497 5.226.233 6.801-1.342 1.896-1.896 2.844-3.791 2.844-5.688V24.882c0-9.163-7.426-16.59-16.59-16.59z" fill="#E0E0E0"/><ellipse cx="34.5" cy="37" fill="#414B5D" rx="3.5" ry="5"/><ellipse cx="29.959" cy="23.459" fill="#414B5D" rx="2.37" ry="4.74"/><ellipse cx="38.49" cy="23.459" fill="#414B5D" rx="2.37" ry="4.74"/><path d="M29.958 18.72c-.358 0-.694.171-.999.456.808.755 1.37 2.383 1.37 4.283s-.563 3.528-1.37 4.284c.305.285.641.456.999.456 1.311 0 2.371-2.122 2.371-4.74s-1.06-4.739-2.371-4.739zm8.533 0c-.359 0-.696.171-1.001.456.808.756 1.37 2.383 1.37 4.283s-.563 3.528-1.37 4.284c.305.285.642.456 1.001.456 1.309 0 2.369-2.122 2.369-4.74s-1.06-4.739-2.369-4.739zM34.5 32c-.539 0-1.044.188-1.5.5 1.179.804 2 2.509 2 4.5s-.821 3.696-2 4.5c.456.312.961.5 1.5.5 1.933 0 3.5-2.238 3.5-5s-1.567-5-3.5-5z" fill="#242A38"/><path d="M31.854 7.292c-9.699 0-17.589 7.891-17.589 17.59v21.803c0 2.067-.738 3.641-2.558 5.443-.66.672-1.202 2.111.007 3.321.771.771 2.317.915 3.363.915.365 0 .669-.018.858-.032 1.592-.123 3-.563 4.025-1.235.085.119.17.237.285.353.771.771 2.318.915 3.363.915.365 0 .67-.018.858-.032 1.592-.123 3.001-.563 4.025-1.235.085.118.171.237.286.353.77.771 2.317.915 3.362.915.365 0 .669-.018.857-.032 1.592-.123 3.001-.563 4.026-1.235.085.118.17.237.285.353 1.038 1.04 3.49.938 4.22.883 2.029-.156 3.771-.823 4.778-1.831 2.081-2.08 3.137-4.231 3.137-6.395V24.882c.002-9.699-7.888-17.59-17.588-17.59zm15.59 40.814c0 1.613-.858 3.289-2.551 4.98-1.582 1.582-5.586 1.429-6.17.948-.1-.1-.235-.236.018-.519.05-.052.074-.115.11-.175.031-.051.075-.097.097-.152.027-.071.03-.146.041-.222.007-.052.027-.101.026-.153-.001-.083-.028-.163-.05-.244-.012-.043-.01-.088-.027-.129a.999.999 0 0 0-1.636-.313l-.94.959c-1.584 1.583-5.587 1.426-6.17.948-.1-.1-.236-.236.018-.518.06-.063.092-.137.132-.209.022-.04.058-.074.074-.117.031-.079.036-.163.046-.246.005-.044.023-.086.022-.129-.001-.086-.028-.168-.051-.251-.011-.041-.01-.084-.025-.123a.998.998 0 0 0-1.636-.315l-.943.96c-1.583 1.584-5.587 1.429-6.17.948-.1-.1-.235-.236.018-.518.056-.059.086-.131.125-.198.025-.044.063-.083.082-.129.028-.073.031-.15.042-.228.007-.05.026-.098.025-.148-.001-.082-.028-.162-.05-.242-.011-.043-.01-.089-.027-.131a.999.999 0 0 0-1.636-.313l-.94.959c-1.583 1.583-5.586 1.428-6.169.948-.1-.1-.237-.236-.004-.496 2.201-2.181 3.141-4.23 3.141-6.854V24.882c0-8.597 6.994-15.59 15.589-15.59 8.597 0 15.59 6.994 15.59 15.59v23.224z" fill="#272223"/><path d="M29.958 29.199c-1.921 0-3.369-2.468-3.369-5.74 0-3.271 1.448-5.739 3.369-5.739 1.922 0 3.371 2.468 3.371 5.739 0 3.272-1.449 5.74-3.371 5.74zm0-9.479c-.47 0-1.369 1.456-1.369 3.739s.899 3.74 1.369 3.74c.471 0 1.371-1.457 1.371-3.74s-.9-3.739-1.371-3.739zm8.533 9.479c-1.922 0-3.371-2.468-3.371-5.74 0-3.271 1.449-5.739 3.371-5.739 1.921 0 3.369 2.468 3.369 5.739 0 3.272-1.448 5.74-3.369 5.74zm0-9.479c-.471 0-1.371 1.456-1.371 3.739s.9 3.74 1.371 3.74c.47 0 1.369-1.457 1.369-3.74s-.899-3.739-1.369-3.739zM34.5 43c-2.523 0-4.5-2.636-4.5-6s1.977-6 4.5-6 4.5 2.636 4.5 6-1.977 6-4.5 6zm0-10c-1.355 0-2.5 1.832-2.5 4s1.145 4 2.5 4 2.5-1.832 2.5-4-1.145-4-2.5-4z" fill="#272223"/></svg>