<?xml version="1.0" ?><svg version="1.1" viewBox="0 0 512 512" xmlns="http://www.w3.org/2000/svg"><path d="M160,153.3c0,3.7-3,6.7-6.7,6.7h-50.5c-3.7,0-6.7-3-6.7-6.7v-50.5c0-3.7,3-6.7,6.7-6.7h50.5c3.7,0,6.7,3,6.7,6.7V153.3z"/><path d="M288,153.3c0,3.7-3,6.7-6.7,6.7h-50.5c-3.7,0-6.7-3-6.7-6.7v-50.5c0-3.7,3-6.7,6.7-6.7h50.5c3.7,0,6.7,3,6.7,6.7V153.3z"/><path d="M416,153.3c0,3.7-3,6.7-6.7,6.7h-50.5c-3.7,0-6.7-3-6.7-6.7v-50.5c0-3.7,3-6.7,6.7-6.7h50.5c3.7,0,6.7,3,6.7,6.7V153.3z"/></g><g><path d="M160,281.3c0,3.7-3,6.7-6.7,6.7h-50.5c-3.7,0-6.7-3-6.7-6.7v-50.5c0-3.7,3-6.7,6.7-6.7h50.5c3.7,0,6.7,3,6.7,6.7V281.3z"/><path d="M288,281.3c0,3.7-3,6.7-6.7,6.7h-50.5c-3.7,0-6.7-3-6.7-6.7v-50.5c0-3.7,3-6.7,6.7-6.7h50.5c3.7,0,6.7,3,6.7,6.7V281.3z"/><path d="M416,281.3c0,3.7-3,6.7-6.7,6.7h-50.5c-3.7,0-6.7-3-6.7-6.7v-50.5c0-3.7,3-6.7,6.7-6.7h50.5c3.7,0,6.7,3,6.7,6.7V281.3z"/></g><g><path d="M160,409.3c0,3.7-3,6.7-6.7,6.7h-50.5c-3.7,0-6.7-3-6.7-6.7v-50.5c0-3.7,3-6.7,6.7-6.7h50.5c3.7,0,6.7,3,6.7,6.7V409.3z"/><path d="M288,409.3c0,3.7-3,6.7-6.7,6.7h-50.5c-3.7,0-6.7-3-6.7-6.7v-50.5c0-3.7,3-6.7,6.7-6.7h50.5c3.7,0,6.7,3,6.7,6.7V409.3z"/><path d="M416,409.3c0,3.7-3,6.7-6.7,6.7h-50.5c-3.7,0-6.7-3-6.7-6.7v-50.5c0-3.7,3-6.7,6.7-6.7h50.5c3.7,0,6.7,3,6.7,6.7V409.3z"/></svg>