<svg height="32" viewBox="0 0 32 32" width="32" xmlns="http://www.w3.org/2000/svg"><path d="M32 17.969v-4l-4.781-1.992a10.75 10.75 0 0 0-.445-1.094l1.93-4.805-2.829-2.828-4.762 1.961a11.151 11.151 0 0 0-1.117-.461L17.969 0h-4l-1.977 4.734c-.398.141-.781.289-1.16.469l-4.754-1.91L3.25 6.121l1.938 4.711c-.188.387-.34.781-.485 1.188L0 14.031v4l4.707 1.961c.145.406.301.801.488 1.188l-1.902 4.742 2.828 2.828 4.723-1.945c.379.18.766.324 1.164.461L14.031 32h4l1.98-4.758c.379-.141.754-.289 1.113-.461l4.797 1.922 2.828-2.828-1.969-4.773c.168-.359.305-.723.438-1.094L32 17.969zM15.969 22c-3.312 0-6-2.688-6-6s2.688-6 6-6 6 2.688 6 6-2.688 6-6 6z" fill="#4c4c4c"/></svg>