<?xml version="1.0" ?><!DOCTYPE svg  PUBLIC '-//W3C//DTD SVG 1.1//EN'  'http://www.w3.org/Graphics/SVG/1.1/DTD/svg11.dtd'><svg enable-background="new 0 0 24 24" height="24px" id="Layer_1" version="1.1" viewBox="0 0 24 24" width="24px" xml:space="preserve" xmlns="http://www.w3.org/2000/svg" xmlns:xlink="http://www.w3.org/1999/xlink"><path d="M12,0C5.4,0,0,5.4,0,12s5.4,12,12,12s12-5.4,12-12S18.6,0,12,0z M21.8,10h-4.1C17,8.3,15.7,7,14,6.3V2.2  C17.9,3,21,6.1,21.8,10z M22,12c0,0.3,0,0.7-0.1,1h-4c0.1-0.3,0.1-0.7,0.1-1s0-0.7-0.1-1h4C22,11.3,22,11.7,22,12z M12,16  c-2.2,0-4-1.8-4-4s1.8-4,4-4s4,1.8,4,4S14.2,16,12,16z M13,2.1v4C12.7,6,12.3,6,12,6s-0.7,0-1,0.1v-4C11.3,2,11.7,2,12,2  S12.7,2,13,2.1z M10,2.2v4.1C8.3,7,7,8.3,6.3,10H2.2C3,6.1,6.1,3,10,2.2z M6.1,13h-4C2,12.7,2,12.3,2,12s0-0.7,0.1-1h4  C6,11.3,6,11.7,6,12S6,12.7,6.1,13z M2.2,14h4.1c0.6,1.7,1.9,3,3.7,3.7v4.1C6.1,21,3,17.9,2.2,14z M11,21.9v-4  c0.3,0.1,0.7,0.1,1,0.1s0.7,0,1-0.1v4c-0.3,0-0.7,0.1-1,0.1S11.3,22,11,21.9z M14,21.8v-4.1c1.7-0.6,3-1.9,3.7-3.7h4.1  C21,17.9,17.9,21,14,21.8z"/></svg>