<?xml version="1.0"?>
<svg version="1.1" xmlns="http://www.w3.org/2000/svg" viewBox="0 0 96 96">
<path fill="#45668e" d="M53.174,52.908c-1.539-0.896-3.678-0.896-5.416-0.896h-5.707v11.76h5.238c1.939,0,4.412,0.139,6.084-1.035c1.535-1.033,2.404-3.061,2.404-4.992C55.777,55.951,54.709,53.805,53.174,52.908z M51.021,42.865c1.27-0.967,1.936-2.691,1.936-4.279c0-1.725-0.801-3.381-2.27-4.277c-1.537-0.896-4.346-0.689-6.15-0.689h-2.486v10.35h3.289C47.211,43.969,49.418,44.107,51.021,42.865z M79.125,0H16.873C7.555,0,0,7.555,0,16.875v62.25C0,88.443,7.555,96,16.873,96h62.252C88.443,96,96,88.443,96,79.125v-62.25C96,7.555,88.443,0,79.125,0z M50.604,72.535H30.992V25.201H52.42c6.207,0,11.934,3.951,11.934,10.92c0,5.381-3.004,9.066-6.836,10.211v0.139c5.682,1.174,9.74,4.26,9.74,11.705C67.258,65.066,62.566,72.535,50.604,72.535z"/>
</svg>