<?xml version="1.0" ?><svg version="1.1" viewBox="0 0 512 512" xmlns="http://www.w3.org/2000/svg"><rect height="512" id="rect2987" rx="64" ry="64" style="fill:#4c75a3;fill-opacity:1;fill-rule:nonzero;stroke:none" width="512" x="0" y="0"/><path d="M 386.78844,267.98983 C 372.66955,252.76785 353.87005,242.68578 330.3933,237.75205 v -2.04693 c 16.3385,-6.79625 29.1347,-17.43152 38.40871,-31.89745 9.269,-14.45753 13.90601,-30.962 13.90601,-49.50501 0,-15.99315 -3.36292,-30.11373 -10.07368,-42.3718 C 365.9085,99.68118 355.7443,89.90088 342.13502,82.58996 329.53832,75.78365 316.06652,71.31764 301.6861,69.18857 287.30567,67.06118 266.16922,66 238.26168,66 H 104.02146 v 380 h 152.10929 c 26.36525,0 48.1119,-2.3906 65.20144,-7.15166 17.09625,-4.75435 32.79938,-12.75428 47.08592,-23.98973 12.08708,-9.35784 21.69805,-21.18171 28.83797,-35.47663 7.13825,-14.29158 10.72246,-30.87316 10.72246,-49.7615 0,-25.85225 -7.06282,-46.40362 -21.1901,-61.63065 z M 198.97116,135.66578 h 6.62861 c 17.0141,0 29.817,0.12909 38.40368,0.38223 8.60009,0.25817 16.03338,1.74851 22.34012,4.46601 6.63532,2.90022 11.51374,7.57411 14.66207,14.03843 3.15001,6.46935 4.72753,12.76267 4.72753,18.88164 0,8.34696 -1.45345,15.65955 -4.33524,21.94951 -2.90024,6.30171 -8.17261,11.23544 -15.82718,14.80289 -6.98067,3.23551 -13.73333,5.01755 -20.28651,5.36457 -6.55317,0.34368 -17.99145,0.50293 -34.32491,0.50293 h -11.98985 v -80.38821 z m 104.75515,216.79941 c -3.99661,7.22878 -10.33687,12.72412 -19.01241,16.4525 -9.87586,4.26149 -19.57065,6.56155 -29.09278,6.89516 -9.5305,0.34032 -26.71561,0.51971 -51.54355,0.51971 h -5.10641 v -95.20118 h 17.59918 c 17.02079,0 30.58146,0.12741 40.70375,0.38557 10.12395,0.25482 18.08197,1.4937 23.86232,3.70324 9.53218,3.40483 16.66875,8.41736 21.43819,15.05269 4.76945,6.6353 7.15333,15.82214 7.15333,27.56219 0,9.18516 -2.005,17.40303 -6.00162,24.63012 z" id="path9-3" style="fill:#ffffff;fill-rule:evenodd"/></svg>